<?xml version="1.0" encoding="utf-8"?>
<!-- Generator: Adobe Illustrator 23.0.4, SVG Export Plug-In . SVG Version: 6.00 Build 0)  -->
<svg version="1.1" id="Layer_1" xmlns="http://www.w3.org/2000/svg" xmlns:xlink="http://www.w3.org/1999/xlink" x="0px" y="0px"
	 viewBox="0 0 72 72" style="enable-background:new 0 0 72 72;" xml:space="preserve">
<style type="text/css">
	.st0{fill:#4FAF4E;}
</style>
<g>
	<g>
		<path class="st0" d="M23,46.2c0,1,0.8,1.9,1.9,1.9s1.9-0.8,1.9-1.9V27.6c0-2.4,2-4.3,4.3-4.3H41c2.4,0,4.3,2,4.3,4.3v16.7h-1.9
			c-1,0-1.9,0.8-1.9,1.9V66c0,1-0.8,1.9-1.9,1.9s-1.9-0.8-1.9-1.9V46.2c0-1-0.8-1.9-1.9-1.9s-1.9,0.8-1.9,1.9V66
			c0,1-0.8,1.9-1.9,1.9s-1.9-0.8-1.9-1.9V49.9c0-1-0.8-1.9-1.9-1.9c-1,0-1.9,0.8-1.9,1.9V66c0,3.1,2.5,5.6,5.6,5.6
			c1.4,0,2.7-0.5,3.7-1.4c1,0.8,2.3,1.4,3.7,1.4c3.1,0,5.6-2.5,5.6-5.6V48h1.9c1,0,1.9-0.8,1.9-1.9V27.6c0-4.4-3.6-8.1-8.1-8.1H31
			c-4.4,0-8.1,3.6-8.1,8.1C23,27.6,23,46.2,23,46.2z"/>
		<path class="st0" d="M36,17c4.4,0,8.1-3.6,8.1-8.1S40.4,0.9,36,0.9S27.9,4.5,27.9,9S31.6,17,36,17z M36,4.6c2.4,0,4.3,2,4.3,4.3
			s-2,4.3-4.3,4.3s-4.3-2-4.3-4.3S33.6,4.6,36,4.6z"/>
		<path class="st0" d="M11.8,47.3V66c0,3.1,2.5,5.6,5.6,5.6S23,69.1,23,66V52.4c0-1-0.8-1.9-1.9-1.9s-1.9,0.8-1.9,1.9V66
			c0,1-0.8,1.9-1.9,1.9s-1.9-0.8-1.9-1.9V46c0-0.8-0.5-1.7-1.4-1.8c-1.3-0.3-2.3-1.6-2.3-3V27.6c0-2.4,2-4.3,4.3-4.3h5
			c1,0,1.9-0.8,1.9-1.9s-0.8-1.9-1.9-1.9h-5c-4.4,0-8.1,3.6-8.1,8.1v13.6C8.1,43.8,9.5,46.1,11.8,47.3z"/>
		<path class="st0" d="M21.1,17c1,0,1.9-0.8,1.9-1.9s-0.8-1.9-1.9-1.9c-2.4,0-4.3-2-4.3-4.3s2-4.3,4.3-4.3c1,0,1.9-0.8,1.9-1.9
			s-0.8-1.9-1.9-1.9C16.7,0.9,13,4.5,13,9S16.7,17,21.1,17z"/>
		<path class="st0" d="M50.9,23.2h5c2.4,0,4.3,2,4.3,4.3v14.9c0,1-0.8,1.9-1.9,1.9s-1.9,0.8-1.9,1.9v19.6c0,1-0.8,2-1.8,2
			c-1,0-1.9-0.8-1.9-1.9V51.8c0-1-0.8-1.9-1.9-1.9s-1.9,0.8-1.9,1.9V66c0,3.1,2.5,5.6,5.7,5.6l0,0c3-0.1,5.4-2.7,5.4-5.7V47.7
			c2.2-0.7,3.7-2.9,3.7-5.3V27.6c0-4.4-3.6-8.1-8.1-8.1h-5c-1,0-1.9,0.8-1.9,1.9S49.9,23.2,50.9,23.2z"/>
		<path class="st0" d="M50.9,13.3c-1,0-1.9,0.8-1.9,1.9s0.8,1.9,1.9,1.9C55.3,17,59,13.4,59,9s-3.6-8.1-8.1-8.1
			c-1,0-1.9,0.8-1.9,1.9s0.8,1.9,1.9,1.9c2.4,0,4.3,2,4.3,4.3S53.3,13.3,50.9,13.3z"/>
	</g>
</g>
</svg>
