<?xml version="1.0" encoding="utf-8"?>
<!-- Generator: Adobe Illustrator 23.0.3, SVG Export Plug-In . SVG Version: 6.00 Build 0)  -->
<svg version="1.1" id="Layer_1" xmlns="http://www.w3.org/2000/svg" xmlns:xlink="http://www.w3.org/1999/xlink" x="0px" y="0px"
	 viewBox="0 0 512 512" style="enable-background:new 0 0 512 512;" xml:space="preserve">
<title>Sunset</title>
<g>
	<path fill="#4FAF4E" d="M265,156.5v-51c0-5.5-4.5-10-10-10c-5.5,0-10,4.5-10,10v51c0,5.5,4.5,10,10,10C260.5,166.5,265,162,265,156.5z"/>
	<path fill="#4FAF4E" d="M481,321.5h-51c-5.5,0-10,4.5-10,10s4.5,10,10,10h51c5.5,0,10-4.5,10-10S486.5,321.5,481,321.5z"/>
	<path fill="#4FAF4E" d="M92,331.5c0-5.5-4.5-10-10-10H31c-5.5,0-10,4.5-10,10s4.5,10,10,10h51C87.5,341.5,92,337,92,331.5z"/>
	<path fill="#4FAF4E" d="M386.3,214.1l35.5-35.5c3.9-3.9,3.9-10.3-0.1-14.1c-3.9-3.9-10.2-3.9-14.1,0L372.1,200c-3.9,3.9-4,10.2-0.1,14.1
		S382.3,218.1,386.3,214.1C386.2,214.2,386.2,214.2,386.3,214.1z"/>
	<path fill="#4FAF4E" d="M125.7,214.1c3.9,3.9,10.2,4,14.1,0.1c3.9-3.9,4-10.2,0.1-14.1c0,0,0,0-0.1-0.1l-35.5-35.5c-3.9-3.9-10.3-3.9-14.1,0.1
		c-3.9,3.9-3.9,10.2,0,14.1L125.7,214.1z"/>
	<path fill="#4FAF4E" d="M466,396.5h-97.7c36.6-62,16-142-46-178.6s-142-16-178.6,46c-24.1,40.9-24.1,91.6,0,132.5H45c-5.5,0-10,4.5-10,10
		s4.5,10,10,10h421c5.5,0,10-4.5,10-10S471.5,396.5,466,396.5z M145.6,330.2c0-61,49.5-110.4,110.4-110.3
		c60.9,0,110.3,49.4,110.3,110.3c0.1,23.9-7.7,47.2-22.1,66.2H167.7C153.4,377.4,145.6,354.1,145.6,330.2z"/>
</g>
</svg>
