<?xml version="1.0" encoding="utf-8"?>
<!-- Generator: Adobe Illustrator 23.0.4, SVG Export Plug-In . SVG Version: 6.00 Build 0)  -->
<svg version="1.1" id="Layer_1" xmlns="http://www.w3.org/2000/svg" xmlns:xlink="http://www.w3.org/1999/xlink" x="0px" y="0px"
	 viewBox="0 0 72 72" style="enable-background:new 0 0 72 72;" xml:space="preserve">
<style type="text/css">
	.st0{fill:#4FAF4E;}
</style>
<path class="st0" d="M63.2,17.4H51.6v-4.6c0-3.1-2.5-5.6-5.6-5.6H26.6c-3.1,0-5.6,2.5-5.6,5.6v4.6H8.8c-4.3,0-7.9,3.6-7.9,7.9v31.6
	c0,4.3,3.6,7.9,7.9,7.9h54.5c4.3,0,7.9-3.6,7.9-7.9V25.3C71.1,20.9,67.5,17.4,63.2,17.4z M23.5,12.9c0-1.8,1.5-3.3,3.3-3.3h19.3
	c1.8,0,3.3,1.5,3.3,3.3v4.6h-1.6v-2.8c0-2-1.6-3.6-3.6-3.6H29c-2,0-3.6,1.6-3.6,3.6v2.8h-2L23.5,12.9L23.5,12.9z M45.2,17.4H27.6
	v-2.8c0-0.7,0.7-1.3,1.3-1.3H44c0.7,0,1.3,0.7,1.3,1.3L45.2,17.4L45.2,17.4z M68.6,56.9c0,3.1-2.5,5.6-5.6,5.6H8.8
	c-3.1,0-5.6-2.5-5.6-5.6V25.3c0-3.1,2.5-5.6,5.6-5.6h13.4h0.2h28.1h0.2h12.6c3.1,0,5.6,2.5,5.6,5.6v31.6H68.6z M13.5,22.2v36.6
	c0,0.7-0.5,1.1-1.1,1.1c-0.7,0-1.1-0.5-1.1-1.1V22.2c0-0.7,0.5-1.1,1.1-1.1C13,21,13.5,21.5,13.5,22.2z M60.1,22.2v36.6
	c0,0.7-0.5,1.1-1.1,1.1c-0.7,0-1.1-0.5-1.1-1.1V22.2c0-0.7,0.5-1.1,1.1-1.1S60.1,21.5,60.1,22.2z M52.6,26.1H37.4
	c-0.7,0-1.1,0.5-1.1,1.1v8c0,0.7,0.5,1.1,1.1,1.1h15.2c0.7,0,1.1-0.5,1.1-1.1v-8C53.7,26.6,53.3,26.1,52.6,26.1z M51.5,34h-3.9
	l1.3-1.1c0.5-0.5,0.5-1.1,0-1.6s-1.1-0.5-1.6,0L44.4,34l0,0h-1.3l2.5-2.5c0.5-0.5,0.5-1.1,0-1.6s-1.1-0.5-1.6,0L39.8,34l0,0h-1v-5.6
	h12.9V34H51.5z M52.6,37.7h-6.2c-0.7,0-1.1,0.5-1.1,1.1v6.1c0,0.7,0.5,1.1,1.1,1.1h6.2c0.7,0,1.1-0.5,1.1-1.1v-6.1
	C53.7,38.4,53.3,37.7,52.6,37.7z M51.5,43.8h-3.9V40h3.9V43.8z M41.5,37.7h-4.1c-0.7,0-1.1,0.5-1.1,1.1v3.9c0,0.7,0.5,1.1,1.1,1.1
	h4.1c0.7,0,1.1-0.5,1.1-1.1v-3.9C42.6,38.4,42.1,37.7,41.5,37.7z M40.3,41.8h-1.8v-1.6h1.8V41.8z M52.6,47h-4.1
	c-0.7,0-1.1,0.5-1.1,1.1V52c0,0.7,0.5,1.1,1.1,1.1h4.1c0.7,0,1.1-0.5,1.1-1.1v-3.9C53.7,47.5,53.3,47,52.6,47z M51.5,51h-1.8v-1.6
	h1.8V51z"/>
</svg>
