<?xml version="1.0" encoding="utf-8"?>
<!-- Generator: Adobe Illustrator 23.0.4, SVG Export Plug-In . SVG Version: 6.00 Build 0)  -->
<svg version="1.1" id="Layer_1" xmlns="http://www.w3.org/2000/svg" xmlns:xlink="http://www.w3.org/1999/xlink" x="0px" y="0px"
	 viewBox="0 0 72 72" style="enable-background:new 0 0 72 72;" xml:space="preserve">
<style type="text/css">
	.st0{fill:#4FAF4E;}
</style>
<g>
	<g>
		<path class="st0" d="M69,66.4c-0.1,0-0.2,0.1-0.3,0.1c-0.1,0.1-0.2,0.1-0.3,0.2c-0.1,0.1-0.2,0.1-0.2,0.2
			c-0.3,0.3-0.5,0.7-0.5,1.2c0,0.1,0,0.2,0.1,0.3c0,0.1,0.1,0.2,0.1,0.3c0.1,0.1,0.1,0.2,0.2,0.3c0.1,0.1,0.1,0.2,0.2,0.3
			c0.1,0.1,0.2,0.2,0.2,0.2c0.1,0.1,0.2,0.1,0.3,0.2c0.1,0.1,0.2,0.1,0.3,0.1c0.1,0,0.2,0.1,0.3,0.1c0.4,0,0.9-0.2,1.2-0.5
			c0.3-0.3,0.5-0.7,0.5-1.2s-0.2-0.9-0.5-1.2C70.1,66.5,69.5,66.3,69,66.4z"/>
		<path class="st0" d="M12.7,20.9c4,0,7.2-3.2,7.2-7.2s-3.2-7.2-7.2-7.2s-7.2,3.2-7.2,7.2S8.7,20.9,12.7,20.9z M12.7,9.8
			c2.2,0,3.9,1.7,3.9,3.9s-1.7,3.9-3.9,3.9s-3.9-1.7-3.9-3.9S10.6,9.8,12.7,9.8z"/>
		<path class="st0" d="M63.8,23.1h-9.4c-3.7,0-6.8,2.8-7.2,6.5l-0.7,6.7c-0.5,5.1-4.8,9-9.9,9c-5.3,0-9.7-3.8-10.5-9l-1.1-7
			c-0.6-3.6-3.6-6.2-7.2-6.2H8.3c-4,0-7.2,3.2-7.2,7.2v16.6c0,0.9,0.7,1.7,1.7,1.7h1.7v16.1c0,2.8,2.2,5,5,5h54.4
			c0.9,0,1.7-0.7,1.7-1.7c0-0.9-0.7-1.7-1.7-1.7V55.3H66c0.9,0,1.7-0.7,1.7-1.7v-5h1.7c0.9,0,1.7-0.7,1.7-1.7V30.3
			C71,26.3,67.8,23.1,63.8,23.1z M36.6,60.8c0.4,0,0.7-0.1,1.1-0.1v5.7h-2.2v-5.7C35.9,60.8,36.2,60.8,36.6,60.8z M60.4,66.4h-2.2
			V55.3h2.2V66.4z M67.6,45.3H66c-0.9,0-1.7,0.7-1.7,1.7v5h-10v-5c0-0.9-0.7-1.7-1.7-1.7S51,46,51,46.9v6.5v0.1v0.1
			c0,0.9,0.7,1.7,1.7,1.7h2.2v11.1H41v-7.1c1.7-1.3,2.8-3.4,2.8-5.7v-1.1c0-0.9-0.7-1.7-1.7-1.7s-1.7,0.7-1.7,1.7v1.1
			c0,2.2-1.7,3.9-3.9,3.9c-2.2,0-3.9-1.7-3.9-3.9v-1.1c0-0.9-0.7-1.7-1.7-1.7s-1.7,0.7-1.7,1.7v1.1c0,2.3,1.1,4.3,2.8,5.7v7.2H20.8
			c0.2-0.5,0.3-1.1,0.3-1.7V46.9c0-0.9-0.7-1.7-1.7-1.7c-0.9,0-1.7,0.7-1.7,1.7v17.8c0,0.9-0.7,1.7-1.7,1.7c-0.9,0-1.7-0.7-1.7-1.7
			V46.9c0-0.9-0.7-1.7-1.7-1.7s-1.7,0.7-1.7,1.7v17.8c0,0.9-0.7,1.7-1.7,1.7s-1.7-0.7-1.7-1.7V46.9c0-0.9-0.7-1.7-1.7-1.7H4.4v-15
			c0-2.2,1.7-3.9,3.9-3.9h9.7c1.9,0,3.6,1.4,3.8,3.3l1.1,7c1.1,6.8,6.8,11.8,13.8,11.8c6.9,0,12.5-5.2,13.3-12l0.7-6.7
			c0.2-2,1.9-3.5,3.9-3.5h9.4c2.2,0,3.9,1.7,3.9,3.9L67.6,45.3L67.6,45.3z"/>
		<path class="st0" d="M31,36.4c0,3.1,2.5,5.5,5.5,5.5c3.1,0,5.5-2.5,5.5-5.5c0-3.1-2.5-5.5-5.5-5.5C33.5,30.9,31,33.4,31,36.4z
			 M38.8,36.4c0,1.2-1,2.2-2.2,2.2c-1.2,0-2.2-1-2.2-2.2c0-1.2,1-2.2,2.2-2.2C37.8,34.2,38.8,35.2,38.8,36.4z"/>
		<path class="st0" d="M59.3,20.9c4,0,7.2-3.2,7.2-7.2s-3.2-7.2-7.2-7.2s-7.2,3.2-7.2,7.2S55.3,20.9,59.3,20.9z M59.3,9.8
			c2.2,0,3.9,1.7,3.9,3.9s-1.7,3.9-3.9,3.9c-2.2,0-3.9-1.7-3.9-3.9S57.2,9.8,59.3,9.8z"/>
	</g>
</g>
</svg>
