<svg xmlns="http://www.w3.org/2000/svg" xmlns:xlink="http://www.w3.org/1999/xlink" version="1.1" x="0px" y="0px" viewBox="0 0 128 128" style="enable-background:new 0 0 128 128;" xml:space="preserve"><style type="text/css">
	.st0{fill:#93AEC5;}
	.st1{fill:#444B54;}
	.st2{fill:#FFFFFF;}
	.st3{fill:#C1D2E5;}
	.st4{fill:none;stroke:#444B54;stroke-width:6;stroke-linecap:round;stroke-linejoin:round;stroke-miterlimit:10;}
	.st5{fill:#EDECEB;}
	.st6{fill:#AAAAAA;}
	.st7{fill:#CECECE;}
</style><g><g><path fill="#4FAF4E" d="M43,82c0,1.7,1.3,3,3,3s3-1.3,3-3V52c0-3.9,3.1-7,7-7h16c3.9,0,7,3.1,7,7v27h-3c-1.7,0-3,1.3-3,3v32c0,1.7-1.3,3-3,3    s-3-1.3-3-3V82c0-1.7-1.3-3-3-3s-3,1.3-3,3v32c0,1.7-1.3,3-3,3s-3-1.3-3-3V88c0-1.7-1.3-3-3-3s-3,1.3-3,3v26c0,5,4,9,9,9    c2.3,0,4.4-0.9,6-2.3c1.6,1.4,3.7,2.3,6,2.3c5,0,9-4,9-9V85h3c1.7,0,3-1.3,3-3V52c0-7.2-5.8-13-13-13H56c-7.2,0-13,5.8-13,13V82z"></path><path fill="#4FAF4E" d="M64,35c7.2,0,13-5.8,13-13S71.2,9,64,9s-13,5.8-13,13S56.8,35,64,35z M64,15c3.9,0,7,3.1,7,7s-3.1,7-7,7s-7-3.1-7-7    S60.1,15,64,15z"></path><path fill="#4FAF4E" d="M25,83.8V114c0,5,4,9,9,9s9-4,9-9V92c0-1.7-1.3-3-3-3s-3,1.3-3,3v22c0,1.7-1.3,3-3,3s-3-1.3-3-3V81.7    c0-1.4-0.9-2.6-2.3-2.9C26.5,78.3,25,76.3,25,74V52c0-3.9,3.1-7,7-7h8c1.7,0,3-1.3,3-3s-1.3-3-3-3h-8c-7.2,0-13,5.8-13,13v22    C19,78.2,21.4,81.9,25,83.8z"></path><path fill="#4FAF4E" d="M40,35c1.7,0,3-1.3,3-3s-1.3-3-3-3c-3.9,0-7-3.1-7-7s3.1-7,7-7c1.7,0,3-1.3,3-3s-1.3-3-3-3c-7.2,0-13,5.8-13,13    S32.8,35,40,35z"></path><path fill="#4FAF4E" d="M88,45h8c3.9,0,7,3.1,7,7v24c0,1.7-1.3,3-3,3c-1.7,0-3,1.3-3,3v31.7c0,1.7-1.3,3.2-2.8,3.2c-1.7,0-3-1.3-3-3V91    c0-1.7-1.3-3-3-3s-3,1.3-3,3v23c0,5,4,9,9.1,9h0c4.8-0.1,8.7-4.3,8.7-9.2V84.5c3.5-1.2,6-4.6,6-8.5V52c0-7.2-5.8-13-13-13h-8    c-1.7,0-3,1.3-3,3S86.3,45,88,45z"></path><path fill="#4FAF4E" d="M88,29c-1.7,0-3,1.3-3,3s1.3,3,3,3c7.2,0,13-5.8,13-13S95.2,9,88,9c-1.7,0-3,1.3-3,3s1.3,3,3,3c3.9,0,7,3.1,7,7    S91.9,29,88,29z"></path></g></g></svg>