<?xml version="1.0" encoding="utf-8"?>
<!-- Generator: Adobe Illustrator 23.0.4, SVG Export Plug-In . SVG Version: 6.00 Build 0)  -->
<svg version="1.1"
	 id="Layer_1" xmlns:cc="http://creativecommons.org/ns#" xmlns:dc="http://purl.org/dc/elements/1.1/" xmlns:inkscape="http://www.inkscape.org/namespaces/inkscape" xmlns:rdf="http://www.w3.org/1999/02/22-rdf-syntax-ns#" xmlns:sodipodi="http://sodipodi.sourceforge.net/DTD/sodipodi-0.dtd" xmlns:svg="http://www.w3.org/2000/svg"
	 xmlns="http://www.w3.org/2000/svg" xmlns:xlink="http://www.w3.org/1999/xlink" x="0px" y="0px" viewBox="0 0 72 72"
	 style="enable-background:new 0 0 72 72;" xml:space="preserve">
<style type="text/css">
	.st0{fill:#4FAF4E;}
</style>
<path class="st0" d="M20.2,15c-1,0-1.8,0.8-1.8,1.8s0.8,1.8,1.8,1.8h2.4l2.2,5.6L13.7,42.9c-0.3,0.5-0.4,1.2,0,1.8
	c0.3,0.5,0.9,0.9,1.5,0.9h11c-0.8,5.3-5.5,9.4-11,9.4C9,55,4,50,4,43.8s5-11.2,11.2-11.2c1,0,1.8-0.8,1.8-1.8c0-1-0.8-1.8-1.8-1.8
	c-8.1,0-14.7,6.6-14.7,14.7s6.6,14.7,14.7,14.7c7.5,0,13.7-5.6,14.6-12.9h4.5c0.1,0,0.2,0,0.4-0.1c0.1,0,0.1,0,0.1-0.1
	c0.1,0,0.1,0,0.2-0.1H35c0.1,0,0.1-0.1,0.2-0.1c0.1-0.1,0.1-0.1,0.2-0.1c0.1,0,0.1-0.1,0.1-0.1s0.1-0.1,0.2-0.1l0.1-0.1l14.7-16.2
	l4.9,15.6c0.2,0.8,0.9,1.2,1.7,1.2c0.2,0,0.4,0,0.5-0.1c0.9-0.3,1.5-1.3,1.1-2.2l-3.4-10.5c0.5,0,1-0.1,1.6-0.1
	c6.2,0,11.2,5,11.2,11.2S63.1,55,56.9,55s-11.2-5-11.2-11.2c0-1-0.8-1.8-1.8-1.8s-1.8,0.8-1.8,1.8c0,8.1,6.6,14.7,14.7,14.7
	s14.7-6.6,14.7-14.7S65,29.1,56.9,29.1c-0.9,0-1.8,0.1-2.8,0.3l-3.1-9.7h5.2c0.6,0,1.2,0.5,1.2,1.2c0,0.6-0.5,1.2-1.2,1.2H56
	c-1,0-1.8,0.8-1.8,1.8c0,1,0.8,1.8,1.8,1.8h0.3c2.6,0,4.7-2.1,4.7-4.7s-2.1-4.7-4.7-4.7h-7.6c-0.6,0-1.1,0.3-1.4,0.7
	c-0.4,0.5-0.4,1.1-0.3,1.6l1.1,3.6H27.6l-1.4-3.5h2.1c1,0,1.8-0.8,1.8-1.8S29.4,15,28.4,15H20.2z M29.1,25.6h19.3L34.9,40.5
	L29.1,25.6z M26.4,28.4L31.7,42H18.2L26.4,28.4z"/>
</svg>
