<?xml version="1.0" encoding="utf-8"?>
<!-- Generator: Adobe Illustrator 23.0.4, SVG Export Plug-In . SVG Version: 6.00 Build 0)  -->
<svg version="1.1" id="Layer_1" xmlns="http://www.w3.org/2000/svg" xmlns:xlink="http://www.w3.org/1999/xlink" x="0px" y="0px"
	 viewBox="0 0 72 72" style="enable-background:new 0 0 72 72;" xml:space="preserve">
<style type="text/css">
	.st0{fill:#4FAF4E;}
</style>
<g>
	<path class="st0" d="M23.4,62.6c-3,0-5.7-1.9-6.7-4.8c-0.2-0.7-1-1.2-1.8-1.2h-0.2c-0.1,0-0.2,0-0.2,0c-3.9,0-7.1-3.2-7.1-7.1
		c0-1-0.7-1.8-1.8-1.8s-1.8,0.7-1.8,1.8c0,5.7,4.4,10.3,10,10.8c1.8,3.6,5.5,6,9.6,6c5.9,0,10.8-4.9,10.8-10.8V13.1
		c0-3.9-3.2-7.1-7.1-7.1c-3,0-5.6,1.9-6.7,4.6c-0.7-0.2-1.4-0.3-2.3-0.3c-4.2,0-7.8,3.4-7.8,7.8c0,0,0,0,0,0.1
		c-3.7,0.8-6.6,4.1-6.6,8.2c0,1.2,0.2,2.3,0.7,3.4c-2.3,2.1-3.6,5-3.6,8.1c0,0.3,0,0.6,0.1,0.9c0,0.1,0,0.1,0,0.2
		c0.1,0.3,0.1,0.6,0.1,0.9c0,0.1,0,0.1,0,0.1c0.1,0.3,0.1,0.6,0.2,0.9V41c0.1,0.3,0.2,0.6,0.3,0.9c0,0,0,0.1,0.1,0.1
		c0.2,0.6,0.6,1.2,0.9,1.8c0,0,0,0.1,0.1,0.1c0.3,0.5,0.7,1,1.2,1.4c0.1,0.1,0.1,0.1,0.1,0.1c0.2,0.2,0.4,0.4,0.6,0.6
		c0.1,0.1,0.1,0.1,0.2,0.1c0.2,0.1,0.3,0.2,0.5,0.3c0.1,0.1,0.2,0.1,0.3,0.2l0.1,0.1c0.1,0,0.1,0.1,0.1,0.1c1.7,1,3.6,1.7,5.7,1.7
		c5.9,0,10.8-4.9,10.8-10.8v-3c0-1-0.7-1.8-1.8-1.8c-1,0-1.8,0.7-1.8,1.8v2.7c0,3.9-3.2,7.1-7.1,7.1c-1.4,0-2.8-0.4-3.8-1.1
		c-0.5-0.3-0.9-0.6-1.3-1c-0.1-0.1-0.1-0.1-0.1-0.2c-0.1-0.1-0.2-0.3-0.3-0.5C6,41.6,6,41.6,5.9,41.5c-0.1-0.2-0.2-0.3-0.3-0.5
		c0-0.1-0.1-0.1-0.1-0.1c-0.1-0.2-0.2-0.5-0.3-0.7c-0.1-0.1-0.1-0.2-0.1-0.2C5,39.7,5,39.6,4.9,39.4c0-0.1-0.1-0.2-0.1-0.3
		c-0.1-0.2-0.1-0.3-0.1-0.5c0-0.1,0-0.2-0.1-0.2c0-0.1,0-0.4,0-0.7c0-2.3,1.1-4.4,3-5.8H10c1,0,1.8-0.7,1.8-1.8S11,28.3,10,28.3H7.8
		c-0.3-0.6-0.5-1.3-0.5-2.2c0-2.3,1.7-4.2,3.8-4.8c1.3,2.5,3.8,4.2,6.9,4.2c1,0,1.8-0.7,1.8-1.8s-0.7-1.8-1.8-1.8
		c-1.9,0-3.4-1.2-4-2.9c-0.1-0.2-0.1-0.3-0.1-0.5c0-0.1,0-0.1,0-0.1c0-0.2-0.1-0.3-0.1-0.6c0-2.3,1.9-4.1,4.1-4.1
		c0.9,0,1.8,0.3,2.5,0.8c0.5,0.4,1.2,0.5,1.9,0.2c0.6-0.3,1-0.9,1-1.7c0,0,0,0,0-0.1c0-2,1.7-3.5,3.6-3.5s3.6,1.7,3.6,3.6v42.3
		C30.6,59.5,27.4,62.6,23.4,62.6z"/>
	<path class="st0" d="M59.4,44.8c-3.9,0-7.1-3.2-7.1-7.1c0-1-0.7-1.8-1.8-1.8s-1.8,0.7-1.8,1.8c0,5.9,4.9,10.8,10.8,10.8
		c1,0,1.8-0.7,1.8-1.8C61.2,45.5,60.5,44.8,59.4,44.8z"/>
	<path class="st0" d="M71.1,37.6c0-3.1-1.3-6-3.6-8.1c0.4-1,0.6-2.2,0.6-3.3c0-4-2.8-7.3-6.5-8.2c0-0.1,0-0.1,0-0.2
		c0-4.1-3.2-7.4-7.2-7.8c-0.1,0-0.2,0-0.2,0c-0.1,0-0.1,0-0.1,0H54c-0.7,0-1.6,0.1-2.3,0.3c-1-2.6-3.6-4.6-6.7-4.6
		c-3.9,0-7.1,3.2-7.1,7.1v42.3c0,5.9,4.9,10.8,10.8,10.8c4.1,0,7.8-2.4,9.6-6c5.6-0.3,10-5,10-10.8c0-1.3-0.2-2.6-0.7-3.8
		C69.8,43.7,71.1,40.8,71.1,37.6z M64.2,43.7c-0.7,0.5-1,1.6-0.6,2.4c0.6,1,0.9,2.3,0.9,3.5c0,3.9-3.2,7.1-7.1,7.1
		c-0.1,0-0.2,0-0.2,0H57c-0.7-0.1-1.6,0.4-1.8,1.2c-1,2.9-3.7,4.8-6.7,4.8c-3.9,0-7.1-3.2-7.1-7.1V13.1c0-2,1.7-3.6,3.6-3.6
		c1.8,0,3.3,1.3,3.5,3c-1.3,1.3-2.1,3.2-2.1,5.3c0,1,0.7,1.8,1.8,1.8c1,0,1.8-0.7,1.8-1.8c0-2.3,1.8-4.1,4-4.1c2.3,0.1,4,1.9,4,4.1
		c0,0.4-0.1,0.8-0.2,1.2c-0.2,0.5-0.1,1.2,0.3,1.7c0.3,0.5,0.9,0.7,1.4,0.7h0.2c2.6,0,4.8,2.2,4.8,4.8c0,0.7-0.2,1.3-0.4,2h-2
		c-1,0-1.8,0.7-1.8,1.8s0.7,1.8,1.8,1.8h2.4c1.9,1.3,3,3.4,3,5.8C67.5,40,66.3,42.3,64.2,43.7z"/>
	<circle class="st0" cx="47.8" cy="26.2" r="1.8"/>
</g>
</svg>
