<?xml version="1.0" encoding="utf-8"?>
<!-- Generator: Adobe Illustrator 23.0.4, SVG Export Plug-In . SVG Version: 6.00 Build 0)  -->
<svg version="1.1" id="Layer_1" xmlns="http://www.w3.org/2000/svg" xmlns:xlink="http://www.w3.org/1999/xlink" x="0px" y="0px"
	 viewBox="0 0 72 72" style="enable-background:new 0 0 72 72;" xml:space="preserve">
<style type="text/css">
	.st0{fill:#4FAF4E;}
</style>
<title>Sunset</title>
<g>
	<path class="st0" d="M37.3,21.1v-7.6c0-0.8-0.7-1.5-1.5-1.5s-1.5,0.7-1.5,1.5v7.6c0,0.8,0.7,1.5,1.5,1.5S37.3,21.9,37.3,21.1z"/>
	<path class="st0" d="M69.6,45.7H62c-0.8,0-1.5,0.7-1.5,1.5s0.7,1.5,1.5,1.5h7.6c0.8,0,1.5-0.7,1.5-1.5S70.4,45.7,69.6,45.7z"/>
	<path class="st0" d="M11.5,47.2c0-0.8-0.7-1.5-1.5-1.5H2.4c-0.8,0-1.5,0.7-1.5,1.5s0.7,1.5,1.5,1.5H10C10.8,48.7,11.5,48,11.5,47.2
		z"/>
	<path class="st0" d="M55.4,29.7l5.3-5.3c0.6-0.6,0.6-1.5,0-2.1s-1.5-0.6-2.1,0l-5.3,5.3c-0.6,0.6-0.6,1.5,0,2.1
		C53.9,30.3,54.9,30.3,55.4,29.7L55.4,29.7z"/>
	<path class="st0" d="M16.6,29.7c0.6,0.6,1.5,0.6,2.1,0s0.6-1.5,0-2.1l0,0l-5.3-5.3c-0.6-0.6-1.5-0.6-2.1,0c-0.6,0.6-0.6,1.5,0,2.1
		L16.6,29.7z"/>
	<path class="st0" d="M67.3,56.9H52.8c5.5-9.3,2.4-21.2-6.9-26.7s-21.2-2.4-26.7,6.9c-3.6,6.1-3.6,13.7,0,19.8H4.5
		c-0.8,0-1.5,0.7-1.5,1.5s0.7,1.5,1.5,1.5h62.8c0.8,0,1.5-0.7,1.5-1.5S68.2,56.9,67.3,56.9z M19.5,47c0-9.1,7.4-16.5,16.5-16.5
		S52.5,37.9,52.5,47c0,3.6-1.1,7-3.3,9.9H22.8C20.7,54.1,19.5,50.6,19.5,47z"/>
</g>
</svg>
