<svg xmlns="http://www.w3.org/2000/svg" xmlns:xlink="http://www.w3.org/1999/xlink" version="1.1" x="0px" y="0px" viewBox="0 0 128 128" style="enable-background:new 0 0 128 128;" xml:space="preserve"><style type="text/css">
	.st0{fill:#93AEC5;}
	.st1{fill:#444B54;}
	.st2{fill:#FFFFFF;}
	.st3{fill:#C1D2E5;}
	.st4{fill:none;stroke:#444B54;stroke-width:6;stroke-linecap:round;stroke-linejoin:round;stroke-miterlimit:10;}
	.st5{fill:#EDECEB;}
	.st6{fill:#AAAAAA;}
	.st7{fill:#CECECE;}
</style><g><g><path fill="#4FAF4E" d="M123.4,117.1c-0.2,0-0.4,0.1-0.6,0.2c-0.2,0.1-0.3,0.2-0.5,0.3c-0.2,0.1-0.3,0.2-0.4,0.4c-0.6,0.6-0.9,1.3-0.9,2.1    c0,0.2,0,0.4,0.1,0.6c0,0.2,0.1,0.4,0.2,0.6c0.1,0.2,0.2,0.4,0.3,0.5c0.1,0.2,0.2,0.3,0.4,0.5c0.1,0.1,0.3,0.3,0.4,0.4    c0.2,0.1,0.3,0.2,0.5,0.3c0.2,0.1,0.4,0.1,0.6,0.2c0.2,0,0.4,0.1,0.6,0.1c0.8,0,1.6-0.3,2.1-0.9c0.6-0.6,0.9-1.3,0.9-2.1    s-0.3-1.6-0.9-2.1C125.4,117.2,124.4,116.9,123.4,117.1z"></path><path fill="#4FAF4E" d="M22,35c7.2,0,13-5.8,13-13S29.2,9,22,9S9,14.8,9,22S14.8,35,22,35z M22,15c3.9,0,7,3.1,7,7s-3.1,7-7,7s-7-3.1-7-7    S18.1,15,22,15z"></path><path fill="#4FAF4E" d="M114,39H97c-6.7,0-12.3,5-12.9,11.7l-1.2,12.1C82,72,74.3,79,65,79c-9.5,0-17.4-6.8-18.9-16.2l-1.9-12.7    c-1-6.4-6.4-11.1-12.9-11.1H14C6.8,39,1,44.8,1,52v30c0,1.7,1.3,3,3,3h3v29c0,5,4,9,9,9h98c1.7,0,3-1.3,3-3s-1.3-3-3-3V97h4    c1.7,0,3-1.3,3-3v-9h3c1.7,0,3-1.3,3-3V52C127,44.8,121.2,39,114,39z M65,107c0.7,0,1.3-0.1,2-0.2V117h-4v-10.2    C63.7,106.9,64.3,107,65,107z M108,117h-4V97h4V117z M121,79h-3c-1.7,0-3,1.3-3,3v9H97v-9c0-1.7-1.3-3-3-3s-3,1.3-3,3v11.7    c0,0,0,0.1,0,0.1c0,0,0,0.1,0,0.1c0,1.7,1.3,3,3,3h4v20H73v-12.8c3-2.4,5-6.1,5-10.2v-2c0-1.7-1.3-3-3-3s-3,1.3-3,3v2    c0,3.9-3.1,7-7,7s-7-3.1-7-7v-2c0-1.7-1.3-3-3-3s-3,1.3-3,3v2c0,4.2,2,7.8,5,10.2V117H36.5c0.3-0.9,0.5-1.9,0.5-3V82    c0-1.7-1.3-3-3-3s-3,1.3-3,3v32c0,1.7-1.3,3-3,3s-3-1.3-3-3V82c0-1.7-1.3-3-3-3s-3,1.3-3,3v32c0,1.7-1.3,3-3,3s-3-1.3-3-3V82    c0-1.7-1.3-3-3-3H7V52c0-3.9,3.1-7,7-7h17.4c3.5,0,6.4,2.5,6.9,6l1.9,12.7C42.1,76,52.5,85,65,85c12.4,0,22.6-9.3,23.9-21.6    l1.2-12.1c0.4-3.6,3.4-6.3,7-6.3h17c3.9,0,7,3.1,7,7V79z"></path><path fill="#4FAF4E" d="M55,63c0,5.5,4.5,10,10,10s10-4.5,10-10s-4.5-10-10-10S55,57.5,55,63z M69,63c0,2.2-1.8,4-4,4s-4-1.8-4-4s1.8-4,4-4    S69,60.8,69,63z"></path><path fill="#4FAF4E" d="M106,35c7.2,0,13-5.8,13-13s-5.8-13-13-13s-13,5.8-13,13S98.8,35,106,35z M106,15c3.9,0,7,3.1,7,7s-3.1,7-7,7s-7-3.1-7-7    S102.1,15,106,15z"></path></g></g></svg>