<?xml version="1.0" encoding="utf-8"?>
<!-- Generator: Adobe Illustrator 23.0.4, SVG Export Plug-In . SVG Version: 6.00 Build 0)  -->
<svg version="1.1" id="Layer_1" xmlns="http://www.w3.org/2000/svg" xmlns:xlink="http://www.w3.org/1999/xlink" x="0px" y="0px"
	 viewBox="0 0 72 72" style="enable-background:new 0 0 72 72;" xml:space="preserve">
<style type="text/css">
	.st0{fill:#4FAF4E;}
</style>
<g>
	<path class="st0" d="M18.8,39.2c1.1,0,2.3-0.6,3-1.4l2,6.5c0.4,1.4,1.5,1.6,1.8,1.6c0.3,0,1.4,0,2-1.4l4.3-9.7L37,51.7
		c0.4,1.4,1.5,1.6,1.8,1.6c0,0,0.1,0,0.1,0c0.4,0,1.4-0.1,1.9-1.4l5.7-12.6c0-0.1,0.2-0.2,0.3-0.2h6.9c0.9,0,1.6-0.7,1.6-1.6
		c0-0.9-0.7-1.6-1.6-1.6h-6.9c-1.3,0-2.6,0.9-3.2,2.1l-4.4,9.8l-5.1-16.9c-0.4-1.4-1.5-1.6-1.8-1.6c-0.3,0-1.4,0-2,1.4l-4.3,9.7
		l-1.6-5.5c-0.3-0.9-0.9-1.5-1.8-1.6c-0.8-0.1-1.6,0.3-2.1,1l-1.1,1.4l0,0.1C19.3,35.8,19,36,18.8,36H1.6v0
		c-0.8,0.1-1.3,0.8-1.3,1.6c0,0.8,0.6,1.4,1.3,1.6v0H18.8z"/>
	<path class="st0" d="M65.2,10.6C61.7,7,57,5.1,52,5.1s-9.7,2-13.3,5.5L36.3,13l-2.4-2.4C30.3,7,25.6,5.1,20.6,5.1
		c-5,0-9.7,2-13.3,5.5c-3.5,3.5-5.5,8.3-5.5,13.3c0,3.5,1,6.9,2.7,9.8h3.9C6.2,30.8,5,27.4,5,23.8c0-4.2,1.6-8.1,4.6-11
		c2.9-2.9,6.8-4.6,11-4.6s8.1,1.6,11,4.6l4.7,4.7l4.7-4.7c2.9-2.9,6.8-4.6,11-4.6s8.1,1.6,11,4.6c2.9,2.9,4.6,6.8,4.6,11
		s-1.6,8.1-4.6,11L36.3,61.5L16.3,41.6h-4.5L36.3,66l29-29c3.5-3.5,5.5-8.3,5.5-13.3S68.8,14.1,65.2,10.6z"/>
</g>
</svg>
