<svg xmlns:dc="http://purl.org/dc/elements/1.1/" xmlns:cc="http://creativecommons.org/ns#" xmlns:rdf="http://www.w3.org/1999/02/22-rdf-syntax-ns#" xmlns:svg="http://www.w3.org/2000/svg" xmlns="http://www.w3.org/2000/svg" xmlns:sodipodi="http://sodipodi.sourceforge.net/DTD/sodipodi-0.dtd" xmlns:inkscape="http://www.inkscape.org/namespaces/inkscape" version="1.1" x="0px" y="0px" viewBox="0 0 128 128" enable-background="new 0 0 128 128" xml:space="preserve">
<path style="" d="M 37.5 43 C 35.8 43 34.5 44.3 34.5 46 C 34.5 47.7 35.8 49 37.5 49 L 41.5 49 L 45.199219 58.599609 L 26.400391 90.5 C 25.900391 91.4 25.800391 92.6 26.400391 93.5 C 26.900391 94.4 27.9 95 29 95 L 47.699219 95 C 46.299219 104.1 38.4 111 29 111 C 18.5 111 10 102.5 10 92 C 10 81.5 18.5 73 29 73 C 30.7 73 32 71.7 32 70 C 32 68.3 30.7 67 29 67 C 15.2 67 4 78.2 4 92 C 4 105.8 15.2 117 29 117 C 41.8 117 52.300781 107.4 53.800781 95 L 61.5 95 C 61.7 95 61.899609 95.000391 62.099609 94.900391 C 62.199609 94.900391 62.200781 94.900781 62.300781 94.800781 C 62.400781 94.800781 62.499609 94.799219 62.599609 94.699219 L 62.699219 94.699219 C 62.799219 94.699219 62.9 94.599609 63 94.599609 C 63.1 94.499609 63.200781 94.500391 63.300781 94.400391 C 63.400781 94.400391 63.4 94.299219 63.5 94.199219 C 63.6 94.099219 63.700781 94 63.800781 94 L 63.900391 93.900391 L 88.900391 66.300781 L 97.300781 92.800781 C 97.700781 94.100781 98.899218 94.900391 100.19922 94.900391 C 100.49922 94.900391 100.79961 94.900781 101.09961 94.800781 C 102.69961 94.300781 103.6 92.6 103 91 L 97.300781 73.099609 C 98.100781 73.099609 99 73 100 73 C 110.5 73 119 81.5 119 92 C 119 102.5 110.5 111 100 111 C 89.5 111 81 102.5 81 92 C 81 90.3 79.7 89 78 89 C 76.3 89 75 90.3 75 92 C 75 105.8 86.2 117 100 117 C 113.8 117 125 105.8 125 92 C 125 78.2 113.8 67 100 67 C 98.4 67 96.900781 67.2 95.300781 67.5 L 90.099609 51 L 99 51 C 100.1 51 101 51.9 101 53 C 101 54.1 100.1 55 99 55 L 98.5 55 C 96.8 55 95.5 56.3 95.5 58 C 95.5 59.7 96.8 61 98.5 61 L 99 61 C 103.4 61 107 57.4 107 53 C 107 48.6 103.4 45 99 45 L 86 45 C 85 45 84.099609 45.499219 83.599609 46.199219 C 82.999609 46.999219 82.899609 48.000391 83.099609 48.900391 L 85 55 L 50.199219 55 L 47.900391 49 L 51.5 49 C 53.2 49 54.5 47.7 54.5 46 C 54.5 44.3 53.2 43 51.5 43 L 37.5 43 z M 52.599609 61 L 85.5 61 L 62.5 86.400391 L 52.599609 61 z M 48 65.699219 L 57.099609 89 L 34.199219 89 L 48 65.699219 z " fill="#4FAF4E" stroke="none"></path></svg>