<svg xmlns="http://www.w3.org/2000/svg" xmlns:xlink="http://www.w3.org/1999/xlink" version="1.1" x="0px" y="0px" viewBox="0 0 95 95" enable-background="new 0 0 95 95" xml:space="preserve"><g><path fill="#4FAF4E" d="M27.404,51.886c1.309,0,2.746-0.715,3.598-1.75l2.365,7.902c0.52,1.736,1.816,1.951,2.201,1.975   c0.385,0.021,1.697-0.025,2.432-1.684l5.188-11.747l6.119,20.397c0.52,1.731,1.814,1.948,2.201,1.973   c0.033,0.002,0.076,0.005,0.127,0.005c0.488,0,1.635-0.174,2.311-1.673l6.832-15.182c0.057-0.081,0.238-0.197,0.336-0.217h8.271   c1.066,0,1.932-0.865,1.932-1.932s-0.865-1.931-1.932-1.931h-8.287c-1.578,0-3.191,1.043-3.836,2.479l-5.318,11.817L45.807,41.87   c-0.518-1.734-1.818-1.948-2.203-1.973c-0.385-0.023-1.697,0.027-2.43,1.684l-5.186,11.742l-1.99-6.646   c-0.33-1.112-1.123-1.855-2.115-1.989c-0.961-0.13-1.887,0.338-2.504,1.252l-1.301,1.65l-0.055,0.091   c-0.1,0.138-0.453,0.332-0.619,0.344H6.553v0.029C5.643,48.208,4.947,49,4.947,49.955c0,0.956,0.695,1.747,1.605,1.902v0.029   H27.404z"></path><path fill="#4FAF4E" d="M83.42,17.326c-4.277-4.276-9.965-6.633-16.014-6.633s-11.734,2.356-16.014,6.633l-2.926,2.928l-2.928-2.928   c-4.275-4.276-9.963-6.633-16.014-6.633c-6.049,0-11.736,2.356-16.012,6.633c-4.279,4.278-6.633,9.966-6.633,16.014   c0,4.225,1.148,8.272,3.301,11.787H14.9c-2.693-3.33-4.156-7.444-4.156-11.786c0-5.018,1.951-9.734,5.5-13.281   c3.549-3.549,8.264-5.501,13.281-5.501s9.734,1.952,13.281,5.501l5.66,5.657l5.656-5.657c3.549-3.549,8.266-5.501,13.283-5.501   s9.734,1.952,13.281,5.501c3.549,3.547,5.502,8.264,5.502,13.281s-1.953,9.734-5.504,13.282L48.467,78.844l-24.063-24.06h-5.463   l29.525,29.522L83.42,49.353c4.277-4.276,6.633-9.964,6.633-16.013S87.697,21.604,83.42,17.326z"></path></g></svg>