<?xml version="1.0" encoding="utf-8"?>
<!-- Generator: Adobe Illustrator 23.0.3, SVG Export Plug-In . SVG Version: 6.00 Build 0)  -->
<svg version="1.1" id="Layer_1" xmlns="http://www.w3.org/2000/svg" xmlns:xlink="http://www.w3.org/1999/xlink" x="0px" y="0px"
	 viewBox="0 0 100 100" style="enable-background:new 0 0 100 100;" xml:space="preserve">
<path fill="#4FAF4E" d="M77.2,31.4H65.6v-4.6c0-3.1-2.5-5.6-5.6-5.6H40.6c-3.1,0-5.6,2.5-5.6,5.6v4.6H22.8c-4.3,0-7.9,3.6-7.9,7.9v31.6
	c0,4.3,3.6,7.9,7.9,7.9h54.5c4.3,0,7.9-3.6,7.9-7.9V39.3C85.1,34.9,81.5,31.4,77.2,31.4z M37.5,26.9c0-1.8,1.5-3.3,3.3-3.3h19.3
	c1.8,0,3.3,1.5,3.3,3.3v4.6h-1.6v-2.8c0-2-1.6-3.6-3.6-3.6H43c-2,0-3.6,1.6-3.6,3.6v2.8h-2V26.9z M59.2,31.4H41.6v-2.8
	c0-0.7,0.7-1.3,1.3-1.3h15.1c0.7,0,1.3,0.7,1.3,1.3V31.4z M82.6,70.9c0,3.1-2.5,5.6-5.6,5.6H22.8c-3.1,0-5.6-2.5-5.6-5.6V39.3
	c0-3.1,2.5-5.6,5.6-5.6h13.4h0.2h28.1h0.2h12.6c3.1,0,5.6,2.5,5.6,5.6v31.6H82.6z M27.5,36.2v36.6c0,0.7-0.5,1.1-1.1,1.1
	c-0.7,0-1.1-0.5-1.1-1.1V36.2c0-0.7,0.5-1.1,1.1-1.1C27,35,27.5,35.5,27.5,36.2z M74.1,36.2v36.6c0,0.7-0.5,1.1-1.1,1.1
	c-0.7,0-1.1-0.5-1.1-1.1V36.2c0-0.7,0.5-1.1,1.1-1.1S74.1,35.5,74.1,36.2z M66.6,40.1H51.4c-0.7,0-1.1,0.5-1.1,1.1v8
	c0,0.7,0.5,1.1,1.1,1.1h15.2c0.7,0,1.1-0.5,1.1-1.1v-8C67.7,40.6,67.3,40.1,66.6,40.1z M65.5,48h-3.9l1.3-1.1c0.5-0.5,0.5-1.1,0-1.6
	c-0.5-0.5-1.1-0.5-1.6,0L58.4,48l0,0h-1.3l2.5-2.5c0.5-0.5,0.5-1.1,0-1.6c-0.5-0.5-1.1-0.5-1.6,0L53.8,48l0,0h-1v-5.6h12.9V48H65.5z
	 M66.6,51.7h-6.2c-0.7,0-1.1,0.5-1.1,1.1v6.1c0,0.7,0.5,1.1,1.1,1.1h6.2c0.7,0,1.1-0.5,1.1-1.1v-6.1C67.7,52.4,67.3,51.7,66.6,51.7z
	 M65.5,57.8h-3.9V54h3.9V57.8z M55.5,51.7h-4.1c-0.7,0-1.1,0.5-1.1,1.1v3.9c0,0.7,0.5,1.1,1.1,1.1h4.1c0.7,0,1.1-0.5,1.1-1.1v-3.9
	C56.6,52.4,56.1,51.7,55.5,51.7z M54.3,55.8h-1.8v-1.6h1.8V55.8z M66.6,61h-4.1c-0.7,0-1.1,0.5-1.1,1.1v3.9c0,0.7,0.5,1.1,1.1,1.1
	h4.1c0.7,0,1.1-0.5,1.1-1.1v-3.9C67.7,61.5,67.3,61,66.6,61z M65.5,65h-1.8v-1.6h1.8V65z"/>
</svg>
