<svg xmlns="http://www.w3.org/2000/svg" xmlns:xlink="http://www.w3.org/1999/xlink" version="1.1" x="0px" y="0px" viewBox="0 0 128 128" style="enable-background:new 0 0 128 128;" xml:space="preserve"><g><path fill="#4FAF4E" d="M43,109.2c-5.1,0-9.6-3.2-11.3-8c-0.4-1.3-1.7-2.1-3-2l-0.3,0c-0.1,0-0.3,0-0.4,0c-6.6,0-12-5.4-12-12c0-1.7-1.3-3-3-3   s-3,1.3-3,3c0,9.5,7.5,17.4,16.9,18c3,6.1,9.2,10,16.1,10c9.9,0,18-8.1,18-18v-71c0-6.6-5.4-12-12-12c-5.1,0-9.4,3.1-11.2,7.6   c-1.2-0.4-2.5-0.6-3.8-0.6c-7.2,0-13,5.8-13,13c0,0,0,0,0,0.1c-6.3,1.4-11.1,7-11.1,13.7c0,2,0.4,3.9,1.2,5.7C7.3,57.1,5,62,5,67.2   c0,0.6,0,1.1,0.1,1.6c0,0.1,0,0.2,0,0.3c0.1,0.5,0.1,1.1,0.2,1.6c0,0.1,0,0.1,0,0.2c0.1,0.5,0.2,1,0.4,1.5c0,0,0,0.1,0,0.1   c0.2,0.5,0.4,1,0.6,1.6c0,0,0,0.1,0.1,0.1c0.4,1,1,2,1.6,2.9c0,0,0,0.1,0.1,0.1c0.6,0.9,1.3,1.7,2.1,2.5c0.1,0.1,0.1,0.1,0.2,0.2   c0.4,0.3,0.7,0.7,1.1,1c0.1,0.1,0.2,0.2,0.3,0.2c0.3,0.2,0.6,0.4,0.9,0.6c0.2,0.1,0.3,0.2,0.5,0.4c0,0,0.1,0.1,0.1,0.1   c0.1,0,0.1,0.1,0.2,0.1c2.8,1.7,6,2.7,9.5,2.7c9.9,0,18-8.1,18-18v-5c0-1.7-1.3-3-3-3s-3,1.3-3,3v5c0,6.6-5.4,12-12,12   c-2.4,0-4.6-0.7-6.5-1.9c-0.8-0.5-1.6-1.1-2.2-1.8c-0.1-0.1-0.2-0.2-0.2-0.3c-0.2-0.2-0.4-0.5-0.6-0.8c-0.1-0.1-0.2-0.2-0.3-0.4   c-0.2-0.3-0.4-0.6-0.6-0.9c0-0.1-0.1-0.1-0.1-0.2c-0.2-0.4-0.4-0.8-0.6-1.2c-0.1-0.1-0.1-0.3-0.2-0.4c-0.1-0.3-0.2-0.6-0.3-0.9   c0-0.2-0.1-0.3-0.1-0.5c-0.1-0.3-0.1-0.6-0.2-0.9c0-0.1,0-0.3-0.1-0.4C11,68.2,11,67.7,11,67.2c0-3.9,1.9-7.4,5-9.7h4   c1.7,0,3-1.3,3-3s-1.3-3-3-3h-3.2c-0.6-1.1-0.9-2.3-0.9-3.6c0-3.9,2.8-7.1,6.5-7.9c2.2,4.2,6.5,7.1,11.6,7.1c1.7,0,3-1.3,3-3   s-1.3-3-3-3c-3.1,0-5.8-2.1-6.7-4.9c-0.1-0.3-0.2-0.6-0.2-0.9c0-0.1,0-0.1,0-0.2c0-0.3-0.1-0.6-0.1-1c0-3.9,3.1-7,7-7   c1.5,0,3,0.5,4.2,1.4c0.9,0.7,2.1,0.8,3.1,0.3c1-0.5,1.7-1.5,1.7-2.7c0,0,0,0,0-0.1c0-3.3,2.7-5.9,6-5.9c3.3,0,6,2.7,6,6v71   C55,103.9,49.6,109.2,43,109.2z"></path><path fill="#4FAF4E" d="M103.4,79.2c-6.6,0-12-5.4-12-12c0-1.7-1.3-3-3-3s-3,1.3-3,3c0,9.9,8.1,18,18,18c1.7,0,3-1.3,3-3S105.1,79.2,103.4,79.2z"></path><path fill="#4FAF4E" d="M123,67.2c0-5.2-2.2-10.1-6.1-13.5c0.7-1.7,1.1-3.6,1.1-5.5c0-6.7-4.7-12.3-11-13.7c0-0.1,0-0.2,0-0.3   c0-6.9-5.4-12.5-12.2-13c-0.1,0-0.3,0-0.4,0c-0.1,0-0.1,0-0.2,0c-0.1,0-0.1,0-0.2,0c-1.3,0-2.6,0.2-3.8,0.6   c-1.8-4.4-6.1-7.6-11.2-7.6c-6.6,0-12,5.4-12,12v71c0,9.9,8.1,18,18,18c6.9,0,13.1-4,16.1-10c9.4-0.6,16.9-8.4,16.9-18   c0-2.2-0.4-4.4-1.2-6.4C120.7,77.4,123,72.5,123,67.2z M111.4,77.3c-1.3,0.9-1.8,2.6-1,4c1,1.8,1.6,3.8,1.6,5.9c0,6.6-5.4,12-12,12   c-0.1,0-0.3,0-0.4,0l-0.3,0c-1.3-0.1-2.6,0.7-3,2c-1.7,4.8-6.2,8-11.3,8c-6.6,0-12-5.4-12-12v-71c0-3.3,2.7-6,6-6   c3,0,5.5,2.2,5.9,5.1c-2.2,2.3-3.5,5.4-3.5,8.9c0,1.7,1.3,3,3,3s3-1.3,3-3c0-3.8,3-6.9,6.8-7c3.8,0.1,6.8,3.2,6.8,7   c0,0.7-0.1,1.4-0.3,2.1c-0.3,0.9-0.1,2,0.5,2.7c0.6,0.8,1.5,1.2,2.5,1.2l0.3,0c4.4,0,8,3.6,8,8c0,1.2-0.3,2.3-0.7,3.3H108   c-1.7,0-3,1.3-3,3s1.3,3,3,3h4c3.1,2.3,5,5.8,5,9.7C117,71.3,114.9,75.1,111.4,77.3z"></path><circle fill="#4FAF4E" cx="84" cy="48" r="3"></circle></g></svg>